<svg width="40" height="40" fill="none" xmlns="http://www.w3.org/2000/svg"><path d="M39.581 37.628 27.764 25.81c5.162-6.138 4.883-15.416-.907-21.206-6.139-6.139-16.114-6.139-22.253 0-6.139 6.139-6.139 16.114 0 22.253a15.92 15.92 0 0 0 11.091 4.534c3.558 0 7.186-1.256 10.046-3.627L37.559 39.58c.348.28.697.419 1.046.419.349 0 .697-.14.977-.419a1.349 1.349 0 0 0 0-1.953ZM24.834 24.834c-5.023 5.022-13.254 5.022-18.277 0-5.022-5.023-5.022-13.254 0-18.277 2.512-2.511 5.86-3.767 9.138-3.767 3.28 0 6.628 1.256 9.139 3.767 5.022 5.023 5.022 13.254 0 18.277Zm-.767-9.139a1.4 1.4 0 0 1-1.396 1.396h-5.58v5.58a1.4 1.4 0 0 1-1.396 1.396A1.4 1.4 0 0 1 14.3 22.67v-5.58H8.72a1.4 1.4 0 0 1-1.395-1.396A1.4 1.4 0 0 1 8.72 14.3h5.58V8.72a1.4 1.4 0 0 1 1.395-1.395 1.4 1.4 0 0 1 1.396 1.395v5.58h5.58a1.4 1.4 0 0 1 1.396 1.395Z" fill="#fff"/></svg>