<svg width="25" height="25" fill="none" xmlns="http://www.w3.org/2000/svg"><path d="M24.526 7.692 22.97 6.138a.716.716 0 0 0-.843-.105 2.273 2.273 0 0 1-2.845-.316 2.277 2.277 0 0 1-.316-2.846.682.682 0 0 0-.105-.843L17.308.474a1.654 1.654 0 0 0-2.319 0l-3.951 3.952 1.633 1.633-.948.948-1.633-1.633L.474 14.99a1.654 1.654 0 0 0 0 2.318l1.554 1.554c.211.21.554.263.817.105.896-.553 2.055-.395 2.819.343.737.737.896 1.896.342 2.819a.641.641 0 0 0 .106.816l1.58 1.58c.316.317.738.475 1.16.475.42 0 .842-.158 1.159-.474l9.615-9.616-1.633-1.633.948-.948 1.633 1.633 3.952-3.951a1.654 1.654 0 0 0 0-2.319Zm-11.908.237.949-.948 1.765 1.765-.948.948-1.766-1.765Zm4.426 4.426L15.28 10.59l.949-.948 1.765 1.765-.949.948Z" fill="#fff"/></svg>