<svg xmlns="http://www.w3.org/2000/svg">
  <symbol id="logo">
    <g clip-path="url(#a)">
      <path d="M5.472 14.969a1.269 1.269 0 1 0 0-2.538 1.269 1.269 0 0 0 0 2.538ZM22.133 14.969a1.269 1.269 0 1 0 0-2.538 1.269 1.269 0 0 0 0 2.538Z"/>
      <path d="M14 0A13.973 13.973 0 0 0 2.728 5.608H6.699a8.665 8.665 0 0 0 4.094-1.105c.396-.208.835-.32 1.283-.328a2.92 2.92 0 0 1 2.933 2.852 2.893 2.893 0 0 1-4.284 2.525 10.63 10.63 0 0 0-5.008-1.365H4.352a9.62 9.62 0 0 0-3.343.628 14 14 0 0 0 0 10.37 7.465 7.465 0 0 0 1.897.26h3.357a8.665 8.665 0 0 0 4.093-1.106c.396-.208.836-.32 1.283-.327a2.92 2.92 0 0 1 2.947 2.838 2.892 2.892 0 0 1-4.243 2.592 10.629 10.629 0 0 0-5.008-1.364H3.97c-.415.002-.83.034-1.241.096A14 14 0 1 0 13.999 0Zm8.187 17.18a3.383 3.383 0 0 1-1.61-.41 12.512 12.512 0 0 0-5.895-1.637h-1.61c-2.07.05-4.096.612-5.895 1.637a3.397 3.397 0 0 1-5.008-3.056 3.439 3.439 0 0 1 3.48-3.33 3.37 3.37 0 0 1 1.5.396 10.193 10.193 0 0 0 4.763 1.364h3.957a10.194 10.194 0 0 0 4.762-1.364 3.37 3.37 0 0 1 1.501-.396 3.439 3.439 0 0 1 3.48 3.343 3.398 3.398 0 0 1-3.398 3.452h-.027Z"/>
      <path d="M11.585 21.928a1.078 1.078 0 1 0 0-2.156 1.078 1.078 0 0 0 0 2.156ZM12.008 8.078a1.078 1.078 0 1 0 0-2.156 1.078 1.078 0 0 0 0 2.156Z"/>
    </g>
    <defs>
      <clipPath id="a">
        <path d="M0 0h28v28H0z"/>
      </clipPath>
    </defs>
  </symbol>

  <symbol id="fb-icon">
    <path d="M.351 11.717h2.387v9.928c0 .196.157.355.351.355h4.048a.353.353 0 0 0 .35-.355v-9.881h2.745a.352.352 0 0 0 .349-.314l.417-3.655a.357.357 0 0 0-.087-.277.35.35 0 0 0-.262-.119H7.488V5.11c0-.692.368-1.042 1.094-1.042h2.067A.353.353 0 0 0 11 3.712V.357a.353.353 0 0 0-.351-.354H7.8A2.764 2.764 0 0 0 7.67 0C7.175 0 5.457.098 4.1 1.36 2.599 2.756 2.808 4.43 2.858 4.72V7.4H.351A.353.353 0 0 0 0 7.753v3.608c0 .196.157.355.351.355Z"/>
  </symbol>

  <symbol id="vk-icon">
    <path fill-rule="evenodd" d="M24.098 9.538c.929.858 1.91 1.666 2.742 2.61.368.42.716.854.983 1.341.378.693.036 1.455-.62 1.497l-4.08-.002c-1.052.083-1.891-.318-2.597-1-.564-.544-1.087-1.123-1.63-1.686a3.806 3.806 0 0 0-.735-.618c-.556-.342-1.04-.237-1.358.313-.324.559-.398 1.178-.43 1.801-.043.91-.334 1.148-1.298 1.19-2.062.092-4.02-.203-5.837-1.188-1.603-.868-2.846-2.093-3.928-3.48C3.204 7.613 1.591 4.644.141 1.592-.185.906.054.537.855.523 2.185.5 3.516.502 4.85.523c.54.007.899.301 1.107.785.72 1.675 1.601 3.27 2.707 4.748.295.393.595.787 1.022 1.064.473.306.834.205 1.056-.294.141-.316.203-.657.235-.996.105-1.165.12-2.329-.066-3.49-.113-.725-.544-1.194-1.308-1.332C9.212.937 9.27.8 9.459.59 9.786.226 10.095 0 10.709 0h4.61c.726.136.887.444.987 1.136l.004 4.847c-.008.268.141 1.062.65 1.239.408.126.676-.183.921-.427 1.104-1.11 1.892-2.42 2.595-3.777.313-.597.581-1.216.841-1.835.193-.46.496-.686 1.043-.676l4.436.004c.132 0 .265.002.393.022.747.12.952.425.721 1.116-.364 1.085-1.072 1.988-1.764 2.896-.74.97-1.531 1.905-2.265 2.88-.674.89-.62 1.34.217 2.113Z" clip-rule="evenodd"/>
  </symbol>

  <symbol id="arrow-left">
    <path d="M9.21839 1L1 9L9.21839 17"/>
  </symbol>
</svg>
