<svg width="25" height="25" viewBox="0 0 25 25" fill="none" xmlns="http://www.w3.org/2000/svg">
<path d="M24.5258 7.6923L22.9715 6.13804C22.7608 5.92729 22.392 5.8746 22.1285 6.03266C21.2065 6.61222 20.0474 6.4805 19.2834 5.71653C18.5195 4.95257 18.3878 3.76712 18.9673 2.87144C19.1254 2.608 19.099 2.26553 18.862 2.02844L17.3077 0.474183C16.6754 -0.158061 15.6217 -0.158061 14.9895 0.474183L11.0379 4.42571L12.6712 6.059L11.7229 7.00737L10.0896 5.37407L0.474183 14.9895C-0.158061 15.6217 -0.158061 16.6754 0.474183 17.3077L2.02844 18.8619C2.23919 19.0727 2.58166 19.1254 2.8451 18.9673C3.74078 18.4141 4.89988 18.5722 5.66384 19.3098C6.40146 20.0474 6.55954 21.2065 6.00632 22.1285C5.84826 22.392 5.8746 22.7344 6.11169 22.9452L7.6923 24.5258C8.00842 24.8419 8.42992 25 8.85142 25C9.27292 25 9.6944 24.8419 10.0105 24.5258L19.6259 14.9104L17.9926 13.2771L18.941 12.3288L20.5743 13.9621L24.5258 10.0105C25.1581 9.37828 25.1581 8.32454 24.5258 7.6923ZM12.6185 7.9294L13.5669 6.98102L15.3319 8.74604L14.3836 9.69442L12.6185 7.9294ZM17.0442 12.3551L15.2792 10.5901L16.2276 9.64172L17.9926 11.4067L17.0442 12.3551Z" fill="white"/>
</svg>
